<svg width="1616" height="942" viewBox="0 0 1616 942" fill="none" xmlns="http://www.w3.org/2000/svg">
<g opacity="0.35">
<g opacity="0.35" clip-path="url(#clip0_93_3946)">
<path d="M32.685 1012.42L32.6851 -70.6731L31.2833 -70.6731L31.2833 1012.42L32.685 1012.42Z" fill="#B3B3B3"/>
<path d="M66.583 1012.42L66.583 -70.6731L65.1813 -70.6731L65.1812 1012.42L66.583 1012.42Z" fill="#B3B3B3"/>
<path d="M100.481 1012.42L100.481 -70.6731L99.0792 -70.6731L99.0792 1012.42L100.481 1012.42Z" fill="#B3B3B3"/>
<path d="M134.379 1012.42L134.379 -70.6731L132.977 -70.6731L132.977 1012.42L134.379 1012.42Z" fill="#B3B3B3"/>
<path d="M168.277 1012.42L168.277 -70.6731L166.875 -70.6731L166.875 1012.42L168.277 1012.42Z" fill="#B3B3B3"/>
<path d="M202.175 1012.42L202.175 -70.6731L200.773 -70.6731L200.773 1012.42L202.175 1012.42Z" fill="#B3B3B3"/>
<path d="M236.073 1012.42L236.073 -70.6731L234.671 -70.6731L234.671 1012.42L236.073 1012.42Z" fill="#B3B3B3"/>
<path d="M269.971 1012.42L269.971 -70.6731L268.569 -70.6731L268.569 1012.42L269.971 1012.42Z" fill="#B3B3B3"/>
<path d="M303.869 1012.42L303.869 -70.6731L302.467 -70.6731L302.467 1012.42L303.869 1012.42Z" fill="#B3B3B3"/>
<path d="M337.768 1012.42L337.768 -70.6731L336.366 -70.6731L336.366 1012.42L337.768 1012.42Z" fill="#B3B3B3"/>
<path d="M371.665 1012.42L371.666 -70.6731L370.264 -70.6731L370.264 1012.42L371.665 1012.42Z" fill="#B3B3B3"/>
<path d="M405.563 1012.42L405.563 -70.6731L404.162 -70.6731L404.162 1012.42L405.563 1012.42Z" fill="#B3B3B3"/>
<path d="M439.461 1012.42L439.461 -70.6731L438.06 -70.6731L438.06 1012.42L439.461 1012.42Z" fill="#B3B3B3"/>
<path d="M473.359 1012.42L473.359 -70.6731L471.958 -70.6731L471.958 1012.42L473.359 1012.42Z" fill="#B3B3B3"/>
<path d="M507.257 1012.42L507.257 -70.6731L505.856 -70.6731L505.856 1012.42L507.257 1012.42Z" fill="#B3B3B3"/>
<path d="M608.25 914.656L608.25 913.255L-69.7104 913.255L-69.7104 914.656L608.25 914.656Z" fill="#B3B3B3"/>
<path d="M608.25 881.836L608.25 880.434L-69.7104 880.434L-69.7104 881.835L608.25 881.836Z" fill="#B3B3B3"/>
<path d="M608.25 849.014L608.25 847.613L-69.7104 847.613L-69.7104 849.014L608.25 849.014Z" fill="#B3B3B3"/>
<path d="M608.25 816.194L608.25 814.792L-69.7104 814.792L-69.7104 816.194L608.25 816.194Z" fill="#B3B3B3"/>
<path d="M608.25 783.373L608.25 781.972L-69.7104 781.972L-69.7104 783.373L608.25 783.373Z" fill="#B3B3B3"/>
<path d="M608.25 750.552L608.25 749.151L-69.7104 749.151L-69.7104 750.552L608.25 750.552Z" fill="#B3B3B3"/>
<path d="M608.25 717.731L608.25 716.33L-69.7104 716.33L-69.7104 717.731L608.25 717.731Z" fill="#B3B3B3"/>
<path d="M608.25 684.91L608.25 683.509L-69.7104 683.509L-69.7104 684.91L608.25 684.91Z" fill="#B3B3B3"/>
<path d="M608.25 652.09L608.25 650.688L-69.7104 650.688L-69.7104 652.09L608.25 652.09Z" fill="#B3B3B3"/>
<path d="M608.25 619.268L608.25 617.866L-69.7104 617.866L-69.7104 619.268L608.25 619.268Z" fill="#B3B3B3"/>
<path d="M608.25 586.447L608.25 585.045L-69.7104 585.045L-69.7104 586.447L608.25 586.447Z" fill="#B3B3B3"/>
<path d="M608.25 553.626L608.25 552.225L-69.7104 552.225L-69.7104 553.626L608.25 553.626Z" fill="#B3B3B3"/>
<path d="M608.25 520.805L608.25 519.404L-69.7104 519.404L-69.7104 520.805L608.25 520.805Z" fill="#B3B3B3"/>
<path d="M608.25 487.984L608.25 486.583L-69.7104 486.583L-69.7104 487.984L608.25 487.984Z" fill="#B3B3B3"/>
<path d="M608.25 455.163L608.25 453.762L-69.7104 453.762L-69.7104 455.163L608.25 455.163Z" fill="#B3B3B3"/>
<path d="M608.25 422.343L608.25 420.941L-69.7104 420.941L-69.7104 422.343L608.25 422.343Z" fill="#B3B3B3"/>
<path d="M608.25 389.522L608.25 388.12L-69.7104 388.12L-69.7104 389.522L608.25 389.522Z" fill="#B3B3B3"/>
<path d="M608.25 356.701L608.25 355.299L-69.7104 355.299L-69.7104 356.7L608.25 356.701Z" fill="#B3B3B3"/>
<path d="M608.25 323.879L608.25 322.478L-69.7104 322.478L-69.7104 323.879L608.25 323.879Z" fill="#B3B3B3"/>
<path d="M608.25 291.058L608.25 289.656L-69.7104 289.656L-69.7104 291.058L608.25 291.058Z" fill="#B3B3B3"/>
<path d="M608.25 258.237L608.25 256.836L-69.7104 256.836L-69.7104 258.237L608.25 258.237Z" fill="#B3B3B3"/>
<path d="M608.25 225.417L608.25 224.015L-69.7104 224.015L-69.7104 225.417L608.25 225.417Z" fill="#B3B3B3"/>
<path d="M608.25 192.596L608.25 191.194L-69.7104 191.194L-69.7104 192.595L608.25 192.596Z" fill="#B3B3B3"/>
<path d="M608.25 159.775L608.25 158.373L-69.7104 158.373L-69.7104 159.775L608.25 159.775Z" fill="#B3B3B3"/>
<path d="M608.25 126.954L608.25 125.552L-69.7104 125.552L-69.7104 126.954L608.25 126.954Z" fill="#B3B3B3"/>
<path d="M608.25 94.1329L608.25 92.7314L-69.7104 92.7314L-69.7104 94.1328L608.25 94.1329Z" fill="#B3B3B3"/>
<path d="M608.25 61.3123L608.25 59.9109L-69.7104 59.9109L-69.7104 61.3123L608.25 61.3123Z" fill="#B3B3B3"/>
<path d="M608.25 28.4903L608.25 27.0889L-69.7104 27.0888L-69.7104 28.4903L608.25 28.4903Z" fill="#B3B3B3"/>
</g>
<g opacity="0.35" clip-path="url(#clip1_93_3946)">
<path d="M571.08 1012.42L571.08 -70.6731L569.678 -70.6731L569.678 1012.42L571.08 1012.42Z" fill="#B3B3B3"/>
<path d="M539.797 1012.42L539.797 -70.6731L538.395 -70.6731L538.395 1012.42L539.797 1012.42Z" fill="#B3B3B3"/>
<path d="M604.978 1012.42L604.978 -70.6731L603.576 -70.6731L603.576 1012.42L604.978 1012.42Z" fill="#B3B3B3"/>
<path d="M638.876 1012.42L638.876 -70.6731L637.474 -70.6731L637.474 1012.42L638.876 1012.42Z" fill="#B3B3B3"/>
<path d="M672.774 1012.42L672.774 -70.6731L671.372 -70.6731L671.372 1012.42L672.774 1012.42Z" fill="#B3B3B3"/>
<path d="M706.672 1012.42L706.672 -70.6731L705.27 -70.6731L705.27 1012.42L706.672 1012.42Z" fill="#B3B3B3"/>
<path d="M740.57 1012.42L740.57 -70.6731L739.168 -70.6731L739.168 1012.42L740.57 1012.42Z" fill="#B3B3B3"/>
<path d="M774.468 1012.42L774.468 -70.6731L773.066 -70.6731L773.066 1012.42L774.468 1012.42Z" fill="#B3B3B3"/>
<path d="M808.366 1012.42L808.366 -70.6731L806.964 -70.6731L806.964 1012.42L808.366 1012.42Z" fill="#B3B3B3"/>
<path d="M842.264 1012.42L842.264 -70.6731L840.862 -70.6731L840.862 1012.42L842.264 1012.42Z" fill="#B3B3B3"/>
<path d="M876.163 1012.42L876.163 -70.6731L874.761 -70.6731L874.761 1012.42L876.163 1012.42Z" fill="#B3B3B3"/>
<path d="M910.06 1012.42L910.061 -70.6731L908.659 -70.6731L908.659 1012.42L910.06 1012.42Z" fill="#B3B3B3"/>
<path d="M943.958 1012.42L943.958 -70.6731L942.557 -70.6731L942.557 1012.42L943.958 1012.42Z" fill="#B3B3B3"/>
<path d="M977.856 1012.42L977.856 -70.6731L976.455 -70.6731L976.455 1012.42L977.856 1012.42Z" fill="#B3B3B3"/>
<path d="M1011.75 1012.42L1011.75 -70.6731L1010.35 -70.6731L1010.35 1012.42L1011.75 1012.42Z" fill="#B3B3B3"/>
<path d="M1045.65 1012.42L1045.65 -70.6731L1044.25 -70.6731L1044.25 1012.42L1045.65 1012.42Z" fill="#B3B3B3"/>
<path d="M1146.65 914.656L1146.65 913.255L468.685 913.255L468.685 914.656L1146.65 914.656Z" fill="#B3B3B3"/>
<path d="M1146.65 881.836L1146.65 880.434L468.685 880.434L468.685 881.835L1146.65 881.836Z" fill="#B3B3B3"/>
<path d="M1146.65 849.014L1146.65 847.613L468.685 847.613L468.685 849.014L1146.65 849.014Z" fill="#B3B3B3"/>
<path d="M1146.65 816.194L1146.65 814.792L468.685 814.792L468.685 816.194L1146.65 816.194Z" fill="#B3B3B3"/>
<path d="M1146.65 783.373L1146.65 781.972L468.685 781.972L468.685 783.373L1146.65 783.373Z" fill="#B3B3B3"/>
<path d="M1146.65 750.552L1146.65 749.151L468.685 749.151L468.685 750.552L1146.65 750.552Z" fill="#B3B3B3"/>
<path d="M1146.65 717.731L1146.65 716.33L468.685 716.33L468.685 717.731L1146.65 717.731Z" fill="#B3B3B3"/>
<path d="M1146.65 684.91L1146.65 683.509L468.685 683.509L468.685 684.91L1146.65 684.91Z" fill="#B3B3B3"/>
<path d="M1146.65 652.09L1146.65 650.688L468.685 650.688L468.685 652.09L1146.65 652.09Z" fill="#B3B3B3"/>
<path d="M1146.65 619.268L1146.65 617.866L468.685 617.866L468.685 619.268L1146.65 619.268Z" fill="#B3B3B3"/>
<path d="M1146.65 586.447L1146.65 585.045L468.685 585.045L468.685 586.447L1146.65 586.447Z" fill="#B3B3B3"/>
<path d="M1146.65 553.626L1146.65 552.225L468.685 552.225L468.685 553.626L1146.65 553.626Z" fill="#B3B3B3"/>
<path d="M1146.65 520.805L1146.65 519.404L468.685 519.404L468.685 520.805L1146.65 520.805Z" fill="#B3B3B3"/>
<path d="M1146.65 487.984L1146.65 486.583L468.685 486.583L468.685 487.984L1146.65 487.984Z" fill="#B3B3B3"/>
<path d="M1146.65 455.163L1146.65 453.762L468.685 453.762L468.685 455.163L1146.65 455.163Z" fill="#B3B3B3"/>
<path d="M1146.65 422.343L1146.65 420.941L468.685 420.941L468.685 422.343L1146.65 422.343Z" fill="#B3B3B3"/>
<path d="M1146.65 389.522L1146.65 388.12L468.685 388.12L468.685 389.522L1146.65 389.522Z" fill="#B3B3B3"/>
<path d="M1146.65 356.701L1146.65 355.299L468.685 355.299L468.685 356.7L1146.65 356.701Z" fill="#B3B3B3"/>
<path d="M1146.65 323.879L1146.65 322.478L468.685 322.478L468.685 323.879L1146.65 323.879Z" fill="#B3B3B3"/>
<path d="M1146.65 291.058L1146.65 289.656L468.685 289.656L468.685 291.058L1146.65 291.058Z" fill="#B3B3B3"/>
<path d="M1146.65 258.237L1146.65 256.836L468.685 256.836L468.685 258.237L1146.65 258.237Z" fill="#B3B3B3"/>
<path d="M1146.65 225.417L1146.65 224.015L468.685 224.015L468.685 225.417L1146.65 225.417Z" fill="#B3B3B3"/>
<path d="M1146.65 192.596L1146.65 191.194L468.685 191.194L468.685 192.595L1146.65 192.596Z" fill="#B3B3B3"/>
<path d="M1146.65 159.775L1146.65 158.373L468.685 158.373L468.685 159.775L1146.65 159.775Z" fill="#B3B3B3"/>
<path d="M1146.65 126.954L1146.65 125.552L468.685 125.552L468.685 126.954L1146.65 126.954Z" fill="#B3B3B3"/>
<path d="M1146.65 94.1329L1146.65 92.7314L468.685 92.7314L468.685 94.1328L1146.65 94.1329Z" fill="#B3B3B3"/>
<path d="M1146.65 61.3123L1146.65 59.9109L468.685 59.9109L468.685 61.3123L1146.65 61.3123Z" fill="#B3B3B3"/>
<path d="M1146.65 28.4903L1146.65 27.0889L468.685 27.0888L468.685 28.4903L1146.65 28.4903Z" fill="#B3B3B3"/>
</g>
<g opacity="0.35" clip-path="url(#clip2_93_3946)">
<path d="M1109.48 1012.42L1109.48 -70.6731L1108.07 -70.6731L1108.07 1012.42L1109.48 1012.42Z" fill="#B3B3B3"/>
<path d="M1078.19 1012.42L1078.19 -70.6731L1076.79 -70.6731L1076.79 1012.42L1078.19 1012.42Z" fill="#B3B3B3"/>
<path d="M1143.37 1012.42L1143.37 -70.6731L1141.97 -70.6731L1141.97 1012.42L1143.37 1012.42Z" fill="#B3B3B3"/>
<path d="M1177.27 1012.42L1177.27 -70.6731L1175.87 -70.6731L1175.87 1012.42L1177.27 1012.42Z" fill="#B3B3B3"/>
<path d="M1211.17 1012.42L1211.17 -70.6731L1209.77 -70.6731L1209.77 1012.42L1211.17 1012.42Z" fill="#B3B3B3"/>
<path d="M1245.07 1012.42L1245.07 -70.6731L1243.67 -70.6731L1243.67 1012.42L1245.07 1012.42Z" fill="#B3B3B3"/>
<path d="M1278.97 1012.42L1278.97 -70.6731L1277.56 -70.6731L1277.56 1012.42L1278.97 1012.42Z" fill="#B3B3B3"/>
<path d="M1312.86 1012.42L1312.86 -70.6731L1311.46 -70.6731L1311.46 1012.42L1312.86 1012.42Z" fill="#B3B3B3"/>
<path d="M1346.76 1012.42L1346.76 -70.6731L1345.36 -70.6731L1345.36 1012.42L1346.76 1012.42Z" fill="#B3B3B3"/>
<path d="M1380.66 1012.42L1380.66 -70.6731L1379.26 -70.6731L1379.26 1012.42L1380.66 1012.42Z" fill="#B3B3B3"/>
<path d="M1414.56 1012.42L1414.56 -70.6731L1413.16 -70.6731L1413.16 1012.42L1414.56 1012.42Z" fill="#B3B3B3"/>
<path d="M1448.46 1012.42L1448.46 -70.6731L1447.05 -70.6731L1447.05 1012.42L1448.46 1012.42Z" fill="#B3B3B3"/>
<path d="M1482.35 1012.42L1482.35 -70.6731L1480.95 -70.6731L1480.95 1012.42L1482.35 1012.42Z" fill="#B3B3B3"/>
<path d="M1516.25 1012.42L1516.25 -70.6731L1514.85 -70.6731L1514.85 1012.42L1516.25 1012.42Z" fill="#B3B3B3"/>
<path d="M1550.15 1012.42L1550.15 -70.6731L1548.75 -70.6731L1548.75 1012.42L1550.15 1012.42Z" fill="#B3B3B3"/>
<path d="M1584.05 1012.42L1584.05 -70.6731L1582.65 -70.6731L1582.65 1012.42L1584.05 1012.42Z" fill="#B3B3B3"/>
<path d="M1685.04 914.656L1685.04 913.255L1007.08 913.255L1007.08 914.656L1685.04 914.656Z" fill="#B3B3B3"/>
<path d="M1685.04 881.836L1685.04 880.434L1007.08 880.434L1007.08 881.835L1685.04 881.836Z" fill="#B3B3B3"/>
<path d="M1685.04 849.014L1685.04 847.613L1007.08 847.613L1007.08 849.014L1685.04 849.014Z" fill="#B3B3B3"/>
<path d="M1685.04 816.194L1685.04 814.792L1007.08 814.792L1007.08 816.194L1685.04 816.194Z" fill="#B3B3B3"/>
<path d="M1685.04 783.373L1685.04 781.972L1007.08 781.972L1007.08 783.373L1685.04 783.373Z" fill="#B3B3B3"/>
<path d="M1685.04 750.552L1685.04 749.151L1007.08 749.151L1007.08 750.552L1685.04 750.552Z" fill="#B3B3B3"/>
<path d="M1685.04 717.731L1685.04 716.33L1007.08 716.33L1007.08 717.731L1685.04 717.731Z" fill="#B3B3B3"/>
<path d="M1685.04 684.91L1685.04 683.509L1007.08 683.509L1007.08 684.91L1685.04 684.91Z" fill="#B3B3B3"/>
<path d="M1685.04 652.09L1685.04 650.688L1007.08 650.688L1007.08 652.09L1685.04 652.09Z" fill="#B3B3B3"/>
<path d="M1685.04 619.268L1685.04 617.866L1007.08 617.866L1007.08 619.268L1685.04 619.268Z" fill="#B3B3B3"/>
<path d="M1685.04 586.447L1685.04 585.045L1007.08 585.045L1007.08 586.447L1685.04 586.447Z" fill="#B3B3B3"/>
<path d="M1685.04 553.626L1685.04 552.225L1007.08 552.225L1007.08 553.626L1685.04 553.626Z" fill="#B3B3B3"/>
<path d="M1685.04 520.805L1685.04 519.404L1007.08 519.404L1007.08 520.805L1685.04 520.805Z" fill="#B3B3B3"/>
<path d="M1685.04 487.984L1685.04 486.583L1007.08 486.583L1007.08 487.984L1685.04 487.984Z" fill="#B3B3B3"/>
<path d="M1685.04 455.163L1685.04 453.762L1007.08 453.762L1007.08 455.163L1685.04 455.163Z" fill="#B3B3B3"/>
<path d="M1685.04 422.343L1685.04 420.941L1007.08 420.941L1007.08 422.343L1685.04 422.343Z" fill="#B3B3B3"/>
<path d="M1685.04 389.522L1685.04 388.12L1007.08 388.12L1007.08 389.522L1685.04 389.522Z" fill="#B3B3B3"/>
<path d="M1685.04 356.701L1685.04 355.299L1007.08 355.299L1007.08 356.7L1685.04 356.701Z" fill="#B3B3B3"/>
<path d="M1685.04 323.879L1685.04 322.478L1007.08 322.478L1007.08 323.879L1685.04 323.879Z" fill="#B3B3B3"/>
<path d="M1685.04 291.058L1685.04 289.656L1007.08 289.656L1007.08 291.058L1685.04 291.058Z" fill="#B3B3B3"/>
<path d="M1685.04 258.237L1685.04 256.836L1007.08 256.836L1007.08 258.237L1685.04 258.237Z" fill="#B3B3B3"/>
<path d="M1685.04 225.417L1685.04 224.015L1007.08 224.015L1007.08 225.417L1685.04 225.417Z" fill="#B3B3B3"/>
<path d="M1685.04 192.596L1685.04 191.194L1007.08 191.194L1007.08 192.596L1685.04 192.596Z" fill="#B3B3B3"/>
<path d="M1685.04 159.775L1685.04 158.373L1007.08 158.373L1007.08 159.775L1685.04 159.775Z" fill="#B3B3B3"/>
<path d="M1685.04 126.954L1685.04 125.552L1007.08 125.552L1007.08 126.954L1685.04 126.954Z" fill="#B3B3B3"/>
<path d="M1685.04 94.1329L1685.04 92.7314L1007.08 92.7314L1007.08 94.1328L1685.04 94.1329Z" fill="#B3B3B3"/>
<path d="M1685.04 61.3123L1685.04 59.9109L1007.08 59.9109L1007.08 61.3123L1685.04 61.3123Z" fill="#B3B3B3"/>
<path d="M1685.04 28.4903L1685.04 27.0889L1007.08 27.0888L1007.08 28.4903L1685.04 28.4903Z" fill="#B3B3B3"/>
</g>
</g>
<defs>
<clipPath id="clip0_93_3946">
<rect width="942" height="538.395" fill="white" transform="translate(538.395) rotate(90)"/>
</clipPath>
<clipPath id="clip1_93_3946">
<rect width="942" height="538.395" fill="white" transform="translate(1076.79) rotate(90)"/>
</clipPath>
<clipPath id="clip2_93_3946">
<rect width="942" height="538.395" fill="white" transform="translate(1615.19) rotate(90)"/>
</clipPath>
</defs>
</svg>
